<svg width="38" height="43" viewBox="0 0 38 43" fill="none" xmlns="http://www.w3.org/2000/svg">
<path fill-rule="evenodd" clip-rule="evenodd" d="M3.13957 9.35922L9.95149 5.47573L19.1906 0.194174L28.4298 5.47573L37.6689 10.7573V16.8932L32.3055 13.8252L19.1906 6.29126L8.50298 12.4272L3.13957 9.35922ZM0.712341 13.5146V19.8058L19.5038 30.5631L24.7498 27.2621L0.712341 13.5146Z" fill="#4878A6"/>
<path fill-rule="evenodd" clip-rule="evenodd" d="M35.2417 33.2816L28.4298 37.165L19.1906 42.4466L9.95149 37.165L0.712341 31.8835V25.7476L6.07575 28.8155L19.1906 36.3107L29.8783 30.1748L35.2417 33.2816ZM23.6928 14.7961L19.3081 12.2719L14.1404 15.2233L17.4289 17.1262L36.2204 27.8835L37.7081 28.7379V22.7961L36.2204 21.9418L23.6928 14.7961Z" fill="#2A5275"/>
</svg>
