<svg width="128" height="24" viewBox="0 0 128 24" fill="none" xmlns="http://www.w3.org/2000/svg">
<path d="M12 2L15.09 8.26L22 9.27L17 14.14L18.18 21.02L12 17.77L5.82 21.02L7 14.14L2 9.27L8.91 8.26L12 2Z" fill="#FBB13C"/>
<path d="M38 2L41.09 8.26L48 9.27L43 14.14L44.18 21.02L38 17.77L31.82 21.02L33 14.14L28 9.27L34.91 8.26L38 2Z" fill="#FBB13C"/>
<path d="M64 2L67.09 8.26L74 9.27L69 14.14L70.18 21.02L64 17.77L57.82 21.02L59 14.14L54 9.27L60.91 8.26L64 2Z" fill="#FBB13C"/>
<path d="M90 2L93.09 8.26L100 9.27L95 14.14L96.18 21.02L90 17.77L83.82 21.02L85 14.14L80 9.27L86.91 8.26L90 2Z" fill="#FBB13C"/>
<path d="M116 2L119.09 8.26L126 9.27L121 14.14L122.18 21.02L116 17.77L109.82 21.02L111 14.14L106 9.27L112.91 8.26L116 2Z" fill="#FBB13C"/>
</svg>
