<svg width="56" height="24" viewBox="0 0 56 24" fill="none" xmlns="http://www.w3.org/2000/svg">
<path d="M21 15C21 15.5304 20.7893 16.0391 20.4142 16.4142C20.0391 16.7893 19.5304 17 19 17H7L3 21V5C3 4.46957 3.21071 3.96086 3.58579 3.58579C3.96086 3.21071 4.46957 3 5 3H19C19.5304 3 20.0391 3.21071 20.4142 3.58579C20.7893 3.96086 21 4.46957 21 5V15Z" stroke="#070C11" stroke-width="2" stroke-linecap="round" stroke-linejoin="round"/>
<path d="M34.104 4.36L34.312 5.08C33.2667 5.592 32.5093 6.424 32.04 7.576C31.5707 8.728 31.336 10.2 31.336 11.992C31.336 13.1653 31.4373 14.2107 31.64 15.128C31.8427 16.0347 32.1627 16.8027 32.6 17.432C33.0373 18.0613 33.608 18.5573 34.312 18.92L34.104 19.64C32.632 19.0853 31.5493 18.1947 30.856 16.968C30.1627 15.7307 29.816 14.0773 29.816 12.008C29.816 9.928 30.1627 8.26933 30.856 7.032C31.5493 5.79467 32.632 4.904 34.104 4.36ZM39.5016 5.96V17H37.9016V8.424C37.9016 8.25333 37.907 8.088 37.9176 7.928C37.9283 7.75733 37.9496 7.58667 37.9816 7.416L35.2936 8.232L35.0856 7.096L37.9016 5.96H39.5016ZM48.1464 5.96C48.3704 5.96 48.5517 6.00267 48.6904 6.088C48.829 6.17333 48.9197 6.296 48.9624 6.456C49.005 6.60533 48.9944 6.78667 48.9304 7L45.4904 17H43.9064L46.9464 8.168C47.0104 8.008 47.069 7.85867 47.1224 7.72C47.1757 7.58133 47.2397 7.44267 47.3144 7.304H41.8904L41.8264 5.96H48.1464ZM50.1248 4.36C51.6074 4.904 52.6954 5.79467 53.3888 7.032C54.0821 8.26933 54.4288 9.928 54.4288 12.008C54.4288 14.0773 54.0821 15.7307 53.3888 16.968C52.6954 18.1947 51.6074 19.0853 50.1248 19.64L49.9488 18.92C50.6421 18.5573 51.2021 18.0613 51.6288 17.432C52.0661 16.8027 52.3861 16.0347 52.5888 15.128C52.8021 14.2107 52.9088 13.1653 52.9088 11.992C52.9088 10.2 52.6741 8.728 52.2048 7.576C51.7461 6.424 50.9941 5.592 49.9488 5.08L50.1248 4.36Z" fill="#070C11"/>
</svg>
